Plot.

After their plane crashes in Alaska, seven oil workers are led by a skilled huntsman to survival, but a pack of merciless wolves haunts their every step. 


General.

Complete name                    : The Grey[2012]ENG[BRRip]Xvid-{RedDragon} 
Format                           : .avi
Format profile                   : Base Media / Version 2
Codec ID                         : mp42
File size                        : 801 MiB
Duration                         : 1h 57mn
Overall bit rate                 : 956 Kbps
IMDB Link                          : http://www.imdb.com/title/tt1601913/
IMDB Rating                     : 7.5/10


Video.

ID                               : 1
Format                           : MPEG-4 Visual
Format profile                   : Simple@L1
Format settings, BVOP            : No
Format settings, QPel            : No
Format settings, GMC             : No warppoints
Format settings, Matrix          : Default (H.263)
Codec ID                         : 20
Duration                         : 1h 57mn
Bit rate mode                    : Variable
Bit rate                         : 794 Kbps
Maximum bit rate                 : 5 392 Kbps
Width                            : 692 pixels
Height                           : 292 pixels
Display aspect ratio             : 2.35:1
Frame rate mode                  : Variable
Frame rate                       : 23.976 fps
Minimum frame rate               : 23.974 fps
Maximum frame rate               : 23.981 fps
Color space                      : YUV
Chroma subsampling               : 4:2:0
Bit depth                        : 8 bits
Scan type                        : Progressive
Bits/(Pixel*Frame)               : 0.164
Stream size                      : 665 MiB (83%)
Writing library                  : Lavc52.94.3
Encoded date                     : UTC 2012-02-08 18:05:45
Tagged date                      : UTC 2012-02-08 18:16:03

Audio
ID                               : 2
Format                           : AC-3
Format/Info                      : Audio Coding 3
Mode extension                   : CM (complete main)
Codec ID                         : ac-3
Duration                         : 1h 56mn
Bit rate mode                    : Constant
Bit rate                         : 160 Kbps
Channel(s)                       : 2 channels
Channel positions                : Front: L R
Sampling rate                    : 48.0 KHz
Bit depth                        : 16 bits
Stream size                      : 134 MiB (17%)
Encoded date                     : UTC 2012-02-08 18:05:45
Tagged date                      : UTC 2012-02-08 18:1
